<svg width="133" height="79" viewBox="0 0 133 79" fill="none" xmlns="http://www.w3.org/2000/svg">
<path d="M3.19602 39V9.90909H7.58523V35.2216H20.767V39H3.19602Z" fill="#53473D"/>
<path d="M21.584 30.216C20.352 30.216 19.232 29.936 18.224 29.376C17.232 28.816 16.448 28.024 15.872 27C15.312 25.96 15.032 24.76 15.032 23.4C15.032 22.056 15.32 20.872 15.896 19.848C16.488 18.808 17.288 18.016 18.296 17.472C19.304 16.912 20.432 16.632 21.68 16.632C22.928 16.632 24.056 16.912 25.064 17.472C26.072 18.016 26.864 18.8 27.44 19.824C28.032 20.848 28.328 22.04 28.328 23.4C28.328 24.76 28.024 25.96 27.416 27C26.824 28.024 26.016 28.816 24.992 29.376C23.968 29.936 22.832 30.216 21.584 30.216ZM21.584 28.296C22.368 28.296 23.104 28.112 23.792 27.744C24.48 27.376 25.032 26.824 25.448 26.088C25.88 25.352 26.096 24.456 26.096 23.4C26.096 22.344 25.888 21.448 25.472 20.712C25.056 19.976 24.512 19.432 23.84 19.08C23.168 18.712 22.44 18.528 21.656 18.528C20.856 18.528 20.12 18.712 19.448 19.08C18.792 19.432 18.264 19.976 17.864 20.712C17.464 21.448 17.264 22.344 17.264 23.4C17.264 24.472 17.456 25.376 17.84 26.112C18.24 26.848 18.768 27.4 19.424 27.768C20.08 28.12 20.8 28.296 21.584 28.296ZM33.3836 12.24V30H31.1996V12.24H33.3836ZM36.2898 23.376C36.2898 22.032 36.5618 20.856 37.1058 19.848C37.6498 18.824 38.3938 18.032 39.3378 17.472C40.2978 16.912 41.3618 16.632 42.5298 16.632C43.6818 16.632 44.6818 16.88 45.5298 17.376C46.3778 17.872 47.0098 18.496 47.4258 19.248V16.848H49.6338V30H47.4258V27.552C46.9938 28.32 46.3458 28.96 45.4818 29.472C44.6338 29.968 43.6418 30.216 42.5058 30.216C41.3378 30.216 40.2818 29.928 39.3378 29.352C38.3938 28.776 37.6498 27.968 37.1058 26.928C36.5618 25.888 36.2898 24.704 36.2898 23.376ZM47.4258 23.4C47.4258 22.408 47.2258 21.544 46.8258 20.808C46.4258 20.072 45.8818 19.512 45.1938 19.128C44.5218 18.728 43.7778 18.528 42.9618 18.528C42.1458 18.528 41.4018 18.72 40.7298 19.104C40.0578 19.488 39.5218 20.048 39.1218 20.784C38.7218 21.52 38.5218 22.384 38.5218 23.376C38.5218 24.384 38.7218 25.264 39.1218 26.016C39.5218 26.752 40.0578 27.32 40.7298 27.72C41.4018 28.104 42.1458 28.296 42.9618 28.296C43.7778 28.296 44.5218 28.104 45.1938 27.72C45.8818 27.32 46.4258 26.752 46.8258 26.016C47.2258 25.264 47.4258 24.392 47.4258 23.4ZM52.5086 23.376C52.5086 22.032 52.7806 20.856 53.3246 19.848C53.8686 18.824 54.6126 18.032 55.5566 17.472C56.5166 16.912 57.5886 16.632 58.7726 16.632C59.7966 16.632 60.7486 16.872 61.6286 17.352C62.5086 17.816 63.1806 18.432 63.6446 19.2V12.24H65.8526V30H63.6446V27.528C63.2126 28.312 62.5726 28.96 61.7246 29.472C60.8766 29.968 59.8846 30.216 58.7486 30.216C57.5806 30.216 56.5166 29.928 55.5566 29.352C54.6126 28.776 53.8686 27.968 53.3246 26.928C52.7806 25.888 52.5086 24.704 52.5086 23.376ZM63.6446 23.4C63.6446 22.408 63.4446 21.544 63.0446 20.808C62.6446 20.072 62.1006 19.512 61.4126 19.128C60.7406 18.728 59.9966 18.528 59.1806 18.528C58.3646 18.528 57.6206 18.72 56.9486 19.104C56.2766 19.488 55.7406 20.048 55.3406 20.784C54.9406 21.52 54.7406 22.384 54.7406 23.376C54.7406 24.384 54.9406 25.264 55.3406 26.016C55.7406 26.752 56.2766 27.32 56.9486 27.72C57.6206 28.104 58.3646 28.296 59.1806 28.296C59.9966 28.296 60.7406 28.104 61.4126 27.72C62.1006 27.32 62.6446 26.752 63.0446 26.016C63.4446 25.264 63.6446 24.392 63.6446 23.4Z" fill="black"/>
<path d="M81.5433 22.92C81.5433 23.336 81.5193 23.776 81.4713 24.24H70.9593C71.0393 25.536 71.4793 26.552 72.2793 27.288C73.0953 28.008 74.0793 28.368 75.2313 28.368C76.1753 28.368 76.9593 28.152 77.5833 27.72C78.2233 27.272 78.6713 26.68 78.9273 25.944H81.2793C80.9273 27.208 80.2233 28.24 79.1673 29.04C78.1113 29.824 76.7993 30.216 75.2313 30.216C73.9833 30.216 72.8633 29.936 71.8713 29.376C70.8953 28.816 70.1273 28.024 69.5673 27C69.0073 25.96 68.7273 24.76 68.7273 23.4C68.7273 22.04 68.9993 20.848 69.5433 19.824C70.0873 18.8 70.8473 18.016 71.8233 17.472C72.8153 16.912 73.9513 16.632 75.2313 16.632C76.4793 16.632 77.5833 16.904 78.5433 17.448C79.5033 17.992 80.2393 18.744 80.7513 19.704C81.2793 20.648 81.5433 21.72 81.5433 22.92ZM79.2873 22.464C79.2873 21.632 79.1033 20.92 78.7353 20.328C78.3673 19.72 77.8633 19.264 77.2233 18.96C76.5993 18.64 75.9033 18.48 75.1353 18.48C74.0313 18.48 73.0873 18.832 72.3033 19.536C71.5353 20.24 71.0953 21.216 70.9833 22.464H79.2873Z" fill="#53473D"/>
</svg>
